<mxfile host="Electron" modified="2023-04-26T17:24:41.910Z" agent="Mozilla/5.0 (Macintosh; Intel Mac OS X 10_15_7) AppleWebKit/537.36 (KHTML, like Gecko) draw.io/21.2.1 Chrome/112.0.5615.87 Electron/24.1.2 Safari/537.36" etag="z1V_xzQef-bAO2gD6dym" version="21.2.1" type="device">
  <diagram name="페이지-1" id="WjTWZu_wgfsH3Yp1EPEO">
    <mxGraphModel dx="1114" dy="559" grid="1" gridSize="10" guides="1" tooltips="1" connect="1" arrows="1" fold="1" page="1" pageScale="1" pageWidth="400" pageHeight="200" math="0" shadow="0">
      <root>
        <mxCell id="0" />
        <mxCell id="1" parent="0" />
        <mxCell id="LTw5yQqBx48sPHNNN6xt-4" value="Image" style="text;html=1;strokeColor=none;fillColor=none;align=center;verticalAlign=middle;whiteSpace=wrap;rounded=0;" parent="1" vertex="1">
          <mxGeometry x="39.91" y="370" width="40" as="geometry" />
        </mxCell>
        <mxCell id="LTw5yQqBx48sPHNNN6xt-5" value="Encoder" style="text;html=1;strokeColor=none;fillColor=none;align=center;verticalAlign=middle;whiteSpace=wrap;rounded=0;" parent="1" vertex="1">
          <mxGeometry x="140" y="370" width="40" as="geometry" />
        </mxCell>
        <mxCell id="AjTzXF5Oelp-aFMQVaQH-9" value="" style="shape=cube;whiteSpace=wrap;html=1;boundedLbl=1;backgroundOutline=1;darkOpacity=0;darkOpacity2=0;size=40;flipH=1;fillColor=#ffe6cc;strokeColor=#d79b00;" parent="1" vertex="1">
          <mxGeometry x="100" y="210" width="120" height="140" as="geometry" />
        </mxCell>
        <mxCell id="AjTzXF5Oelp-aFMQVaQH-11" value="" style="shape=parallelogram;perimeter=parallelogramPerimeter;whiteSpace=wrap;html=1;fixedSize=1;rotation=-90;size=40;flipH=1;fillStyle=solid;" parent="1" vertex="1">
          <mxGeometry x="-10" y="260" width="140" height="40" as="geometry" />
        </mxCell>
        <mxCell id="AjTzXF5Oelp-aFMQVaQH-12" value="" style="shape=cube;whiteSpace=wrap;html=1;boundedLbl=1;backgroundOutline=1;darkOpacity=0;darkOpacity2=0;size=40;flipH=1;fillColor=#ffe6cc;strokeColor=#d79b00;" parent="1" vertex="1">
          <mxGeometry x="230" y="210" width="50" height="140" as="geometry" />
        </mxCell>
        <mxCell id="AjTzXF5Oelp-aFMQVaQH-14" value="Features" style="text;html=1;strokeColor=none;fillColor=none;align=center;verticalAlign=middle;whiteSpace=wrap;rounded=0;" parent="1" vertex="1">
          <mxGeometry x="235" y="370" width="40" as="geometry" />
        </mxCell>
        <mxCell id="AjTzXF5Oelp-aFMQVaQH-16" value="x_t+1" style="text;html=1;strokeColor=none;fillColor=none;align=center;verticalAlign=middle;whiteSpace=wrap;rounded=0;" parent="1" vertex="1">
          <mxGeometry x="195" y="470" width="85" as="geometry" />
        </mxCell>
        <mxCell id="AjTzXF5Oelp-aFMQVaQH-24" value="" style="endArrow=classic;html=1;rounded=0;exitX=0.5;exitY=0.5;exitDx=0;exitDy=0;exitPerimeter=0;" parent="1" source="AjTzXF5Oelp-aFMQVaQH-11" edge="1">
          <mxGeometry width="50" height="50" relative="1" as="geometry">
            <mxPoint x="220" y="420" as="sourcePoint" />
            <mxPoint x="100" y="280" as="targetPoint" />
          </mxGeometry>
        </mxCell>
        <mxCell id="AjTzXF5Oelp-aFMQVaQH-26" value="" style="endArrow=classic;html=1;rounded=0;exitX=0.5;exitY=0.5;exitDx=0;exitDy=0;exitPerimeter=0;" parent="1" edge="1">
          <mxGeometry width="50" height="50" relative="1" as="geometry">
            <mxPoint x="205.63" y="279.71" as="sourcePoint" />
            <mxPoint x="230" y="280" as="targetPoint" />
          </mxGeometry>
        </mxCell>
        <mxCell id="G3NelD-k7GDp5YI_SeNo-103" style="edgeStyle=orthogonalEdgeStyle;rounded=0;orthogonalLoop=1;jettySize=auto;html=1;" parent="1" source="AjTzXF5Oelp-aFMQVaQH-34" edge="1">
          <mxGeometry relative="1" as="geometry">
            <mxPoint x="200" y="425" as="targetPoint" />
          </mxGeometry>
        </mxCell>
        <mxCell id="AjTzXF5Oelp-aFMQVaQH-34" value="" style="shape=cube;whiteSpace=wrap;html=1;boundedLbl=1;backgroundOutline=1;darkOpacity=0;darkOpacity2=0;size=10;flipH=1;fillColor=#f5f5f5;strokeColor=#666666;fontColor=#333333;" parent="1" vertex="1">
          <mxGeometry x="117.5" y="410" width="70" height="30" as="geometry" />
        </mxCell>
        <mxCell id="AjTzXF5Oelp-aFMQVaQH-37" value="x_T" style="text;html=1;strokeColor=none;fillColor=none;align=center;verticalAlign=middle;whiteSpace=wrap;rounded=0;" parent="1" vertex="1">
          <mxGeometry x="110" y="470" width="85" as="geometry" />
        </mxCell>
        <mxCell id="AjTzXF5Oelp-aFMQVaQH-41" value="x_0" style="text;html=1;strokeColor=none;fillColor=none;align=center;verticalAlign=middle;whiteSpace=wrap;rounded=0;" parent="1" vertex="1">
          <mxGeometry x="300" y="590" width="85" as="geometry" />
        </mxCell>
        <mxCell id="G3NelD-k7GDp5YI_SeNo-3" value="x_t" style="text;html=1;strokeColor=none;fillColor=none;align=center;verticalAlign=middle;whiteSpace=wrap;rounded=0;" parent="1" vertex="1">
          <mxGeometry x="419.37" y="590" width="85" as="geometry" />
        </mxCell>
        <mxCell id="G3NelD-k7GDp5YI_SeNo-35" value="" style="shape=cube;whiteSpace=wrap;html=1;boundedLbl=1;backgroundOutline=1;darkOpacity=0;darkOpacity2=0;size=40;flipH=1;fillColor=#dae8fc;strokeColor=#6c8ebf;" parent="1" vertex="1">
          <mxGeometry x="320" y="210" width="160" height="140" as="geometry" />
        </mxCell>
        <mxCell id="G3NelD-k7GDp5YI_SeNo-36" value="Position_wise_Transform" style="text;html=1;strokeColor=none;fillColor=none;align=center;verticalAlign=middle;whiteSpace=wrap;rounded=0;" parent="1" vertex="1">
          <mxGeometry x="380" y="370" width="40" as="geometry" />
        </mxCell>
        <mxCell id="G3NelD-k7GDp5YI_SeNo-90" value="" style="group" parent="1" vertex="1" connectable="0">
          <mxGeometry x="420" y="470" width="80" height="80" as="geometry" />
        </mxCell>
        <mxCell id="G3NelD-k7GDp5YI_SeNo-84" value="" style="rounded=0;whiteSpace=wrap;html=1;" parent="G3NelD-k7GDp5YI_SeNo-90" vertex="1">
          <mxGeometry width="80" height="80" as="geometry" />
        </mxCell>
        <mxCell id="G3NelD-k7GDp5YI_SeNo-86" value="" style="rounded=0;whiteSpace=wrap;html=1;strokeWidth=0.5;fillColor=none;strokeColor=#6c8ebf;" parent="G3NelD-k7GDp5YI_SeNo-90" vertex="1">
          <mxGeometry y="40" width="20" height="40" as="geometry" />
        </mxCell>
        <mxCell id="G3NelD-k7GDp5YI_SeNo-87" value="" style="rounded=0;whiteSpace=wrap;html=1;strokeWidth=0.5;fillColor=none;strokeColor=#d79b00;" parent="G3NelD-k7GDp5YI_SeNo-90" vertex="1">
          <mxGeometry x="40" y="40" width="40" height="40" as="geometry" />
        </mxCell>
        <mxCell id="G3NelD-k7GDp5YI_SeNo-88" value="" style="rounded=0;whiteSpace=wrap;html=1;strokeWidth=0.5;fillColor=none;strokeColor=#d6b656;" parent="G3NelD-k7GDp5YI_SeNo-90" vertex="1">
          <mxGeometry x="50" y="20" width="20" height="40" as="geometry" />
        </mxCell>
        <mxCell id="G3NelD-k7GDp5YI_SeNo-89" value="" style="rounded=0;whiteSpace=wrap;html=1;strokeWidth=0.5;fillColor=none;strokeColor=#82b366;" parent="G3NelD-k7GDp5YI_SeNo-90" vertex="1">
          <mxGeometry x="22.5" width="37.5" height="20" as="geometry" />
        </mxCell>
        <mxCell id="G3NelD-k7GDp5YI_SeNo-96" value="" style="group" parent="1" vertex="1" connectable="0">
          <mxGeometry x="300" y="470" width="90" height="80" as="geometry" />
        </mxCell>
        <mxCell id="G3NelD-k7GDp5YI_SeNo-91" value="" style="rounded=0;whiteSpace=wrap;html=1;" parent="G3NelD-k7GDp5YI_SeNo-96" vertex="1">
          <mxGeometry width="90" height="80" as="geometry" />
        </mxCell>
        <mxCell id="G3NelD-k7GDp5YI_SeNo-92" value="" style="rounded=0;whiteSpace=wrap;html=1;strokeWidth=0.5;fillColor=none;strokeColor=#6c8ebf;" parent="G3NelD-k7GDp5YI_SeNo-96" vertex="1">
          <mxGeometry x="2.8125" y="20" width="19.6875" height="40" as="geometry" />
        </mxCell>
        <mxCell id="G3NelD-k7GDp5YI_SeNo-94" value="" style="rounded=0;whiteSpace=wrap;html=1;strokeWidth=0.5;fillColor=none;strokeColor=#d6b656;" parent="G3NelD-k7GDp5YI_SeNo-96" vertex="1">
          <mxGeometry x="47.8075" y="30" width="22.5" height="20" as="geometry" />
        </mxCell>
        <mxCell id="G3NelD-k7GDp5YI_SeNo-110" style="edgeStyle=orthogonalEdgeStyle;rounded=0;orthogonalLoop=1;jettySize=auto;html=1;entryX=1;entryY=0.5;entryDx=0;entryDy=0;entryPerimeter=0;" parent="1" source="G3NelD-k7GDp5YI_SeNo-97" target="G3NelD-k7GDp5YI_SeNo-35" edge="1">
          <mxGeometry relative="1" as="geometry" />
        </mxCell>
        <mxCell id="G3NelD-k7GDp5YI_SeNo-97" value="" style="shape=cube;whiteSpace=wrap;html=1;boundedLbl=1;backgroundOutline=1;darkOpacity=0;darkOpacity2=0;size=10;flipH=1;fillColor=#f5f5f5;strokeColor=#666666;fontColor=#333333;" parent="1" vertex="1">
          <mxGeometry x="202.5" y="410" width="70" height="30" as="geometry" />
        </mxCell>
        <mxCell id="G3NelD-k7GDp5YI_SeNo-98" value="x_0" style="text;html=1;strokeColor=none;fillColor=none;align=center;verticalAlign=middle;whiteSpace=wrap;rounded=0;" parent="1" vertex="1">
          <mxGeometry x="595" y="470" width="85" as="geometry" />
        </mxCell>
        <mxCell id="G3NelD-k7GDp5YI_SeNo-104" style="edgeStyle=orthogonalEdgeStyle;rounded=0;orthogonalLoop=1;jettySize=auto;html=1;" parent="1" source="G3NelD-k7GDp5YI_SeNo-99" edge="1">
          <mxGeometry relative="1" as="geometry">
            <mxPoint x="600" y="425" as="targetPoint" />
          </mxGeometry>
        </mxCell>
        <mxCell id="FR-xBj-KkcMHWBZXChoK-2" style="edgeStyle=orthogonalEdgeStyle;rounded=0;orthogonalLoop=1;jettySize=auto;html=1;" edge="1" parent="1" source="G3NelD-k7GDp5YI_SeNo-99" target="G3NelD-k7GDp5YI_SeNo-118">
          <mxGeometry relative="1" as="geometry">
            <Array as="points">
              <mxPoint x="553" y="255" />
            </Array>
          </mxGeometry>
        </mxCell>
        <mxCell id="G3NelD-k7GDp5YI_SeNo-99" value="" style="shape=cube;whiteSpace=wrap;html=1;boundedLbl=1;backgroundOutline=1;darkOpacity=0;darkOpacity2=0;size=10;flipH=1;fillColor=#f5f5f5;strokeColor=#666666;fontColor=#333333;" parent="1" vertex="1">
          <mxGeometry x="517.5" y="410" width="70" height="30" as="geometry" />
        </mxCell>
        <mxCell id="G3NelD-k7GDp5YI_SeNo-100" value="x_t" style="text;html=1;strokeColor=none;fillColor=none;align=center;verticalAlign=middle;whiteSpace=wrap;rounded=0;" parent="1" vertex="1">
          <mxGeometry x="510" y="470" width="85" as="geometry" />
        </mxCell>
        <mxCell id="G3NelD-k7GDp5YI_SeNo-101" value="" style="shape=cube;whiteSpace=wrap;html=1;boundedLbl=1;backgroundOutline=1;darkOpacity=0;darkOpacity2=0;size=10;flipH=1;fillColor=#f8cecc;strokeColor=#b85450;" parent="1" vertex="1">
          <mxGeometry x="602.5" y="410" width="70" height="30" as="geometry" />
        </mxCell>
        <mxCell id="G3NelD-k7GDp5YI_SeNo-105" style="edgeStyle=orthogonalEdgeStyle;rounded=0;orthogonalLoop=1;jettySize=auto;html=1;exitX=0.4;exitY=0.501;exitDx=0;exitDy=0;exitPerimeter=0;" parent="1" source="AjTzXF5Oelp-aFMQVaQH-12" edge="1">
          <mxGeometry relative="1" as="geometry">
            <mxPoint x="320" y="280" as="targetPoint" />
          </mxGeometry>
        </mxCell>
        <mxCell id="G3NelD-k7GDp5YI_SeNo-111" style="edgeStyle=orthogonalEdgeStyle;rounded=0;orthogonalLoop=1;jettySize=auto;html=1;entryX=0;entryY=0;entryDx=70;entryDy=20;entryPerimeter=0;exitX=0.125;exitY=0.5;exitDx=0;exitDy=0;exitPerimeter=0;" parent="1" source="G3NelD-k7GDp5YI_SeNo-35" target="G3NelD-k7GDp5YI_SeNo-99" edge="1">
          <mxGeometry relative="1" as="geometry">
            <Array as="points">
              <mxPoint x="498" y="280" />
              <mxPoint x="498" y="430" />
            </Array>
          </mxGeometry>
        </mxCell>
        <mxCell id="G3NelD-k7GDp5YI_SeNo-112" value="" style="shape=cube;whiteSpace=wrap;html=1;boundedLbl=1;backgroundOutline=1;darkOpacity=0;darkOpacity2=0;size=10;flipH=1;fillColor=#d5e8d4;strokeColor=#82b366;" parent="1" vertex="1">
          <mxGeometry x="600" y="290" width="70" height="30" as="geometry" />
        </mxCell>
        <mxCell id="G3NelD-k7GDp5YI_SeNo-117" value="" style="shape=cube;whiteSpace=wrap;html=1;boundedLbl=1;backgroundOutline=1;darkOpacity=0;darkOpacity2=0;size=10;flipH=1;fillColor=#d5e8d4;strokeColor=#82b366;" parent="1" vertex="1">
          <mxGeometry x="600" y="265" width="70" height="30" as="geometry" />
        </mxCell>
        <mxCell id="G3NelD-k7GDp5YI_SeNo-118" value="" style="shape=cube;whiteSpace=wrap;html=1;boundedLbl=1;backgroundOutline=1;darkOpacity=0;darkOpacity2=0;size=10;flipH=1;fillColor=#d5e8d4;strokeColor=#82b366;" parent="1" vertex="1">
          <mxGeometry x="600" y="240" width="70" height="30" as="geometry" />
        </mxCell>
        <mxCell id="G3NelD-k7GDp5YI_SeNo-119" value="Detections" style="text;html=1;strokeColor=none;fillColor=none;align=center;verticalAlign=middle;whiteSpace=wrap;rounded=0;" parent="1" vertex="1">
          <mxGeometry x="595" y="340" width="85" as="geometry" />
        </mxCell>
      </root>
    </mxGraphModel>
  </diagram>
</mxfile>
